<svg width="86" height="81" viewBox="0 0 86 81" fill="none" xmlns="http://www.w3.org/2000/svg">
    <path d="M34.6687 52.3125C46.5428 52.3125 56.1687 43.2462 56.1687 32.0625C56.1687 20.8787 46.5428 11.8125 34.6687 11.8125C22.7946 11.8125 13.1687 20.8787 13.1687 32.0625C13.1687 43.2462 22.7946 52.3125 34.6687 52.3125Z" fill="#FFEF5E"/>
    <path d="M34.6687 1.6875V5.0625" stroke="#191919" stroke-linecap="round" stroke-linejoin="round"/>
    <path d="M9.58179 8.44425L13.1651 11.8193" stroke="#191919" stroke-linecap="round" stroke-linejoin="round"/>
    <path d="M59.752 8.4375L56.1687 11.8125" stroke="#191919" stroke-linecap="round" stroke-linejoin="round"/>
    <path d="M2.4187 32.0625H6.00202" stroke="#191919" stroke-linecap="round" stroke-linejoin="round"/>
    <path d="M50.7435 18.6401C47.8493 15.571 44.033 13.4028 39.8004 12.4229C35.5681 11.4431 31.1195 11.6979 27.0444 13.1537C22.9692 14.6094 19.46 17.1972 16.982 20.5741C14.504 23.951 13.1741 27.9575 13.1687 32.0625C13.1663 34.3143 13.5711 36.5502 14.3655 38.6741" stroke="#191919" stroke-linecap="round" stroke-linejoin="round"/>
    <path d="M26.9897 32.9299C27.145 32.667 27.372 32.4479 27.6473 32.2954C27.9227 32.1429 28.2362 32.0625 28.5557 32.0625H65.8653C66.1846 32.0625 66.4985 32.1429 66.7737 32.2954C67.0489 32.4479 67.2761 32.667 67.4313 32.9299L83.3556 59.9299C83.5072 60.1867 83.5849 60.4766 83.5813 60.7703C83.5774 61.0642 83.4925 61.3521 83.3341 61.6056C83.1761 61.859 82.9503 62.069 82.6794 62.2148C82.4085 62.3609 82.1018 62.4375 81.7897 62.4375H12.6313C12.3193 62.4375 12.0126 62.3609 11.7417 62.2148C11.4708 62.069 11.2451 61.859 11.0869 61.6056C10.9287 61.3521 10.8435 61.0642 10.8397 60.7703C10.8359 60.4766 10.9137 60.1867 11.0654 59.9299L26.9897 32.9299Z" fill="#66E1FF"/>
    <path d="M28.5557 32.0625C28.2362 32.0625 27.9227 32.1429 27.6473 32.2954C27.372 32.4479 27.145 32.667 26.9897 32.9299L11.0654 59.9299C10.9137 60.1867 10.8359 60.4766 10.8397 60.7703C10.8435 61.0642 10.9287 61.3521 11.0869 61.6056C11.2451 61.859 11.4708 62.069 11.7417 62.2148C12.0126 62.3609 12.3193 62.4375 12.6313 62.4375H30.3115L62.5615 32.0625H28.5557Z" fill="#C2F3FF"/>
    <path d="M26.9897 32.9299C27.145 32.667 27.372 32.4479 27.6473 32.2954C27.9227 32.1429 28.2362 32.0625 28.5557 32.0625H65.8653C66.1846 32.0625 66.4985 32.1429 66.7737 32.2954C67.0489 32.4479 67.2761 32.667 67.4313 32.9299L83.3556 59.9299C83.5072 60.1867 83.5849 60.4766 83.5813 60.7703C83.5774 61.0642 83.4925 61.3521 83.3341 61.6056C83.1761 61.859 82.9503 62.069 82.6794 62.2148C82.4085 62.3609 82.1018 62.4375 81.7897 62.4375H12.6313C12.3193 62.4375 12.0126 62.3609 11.7417 62.2148C11.4708 62.069 11.2451 61.859 11.0869 61.6056C10.9287 61.3521 10.8435 61.0642 10.8397 60.7703C10.8359 60.4766 10.9137 60.1867 11.0654 59.9299L26.9897 32.9299Z" stroke="#191919" stroke-linecap="round" stroke-linejoin="round"/>
    <path d="M52.5854 62.4375H41.8354V79.3125H52.5854V62.4375Z" fill="#E3E3E3"/>
    <path d="M52.5854 62.4375H41.8354V68.7015H52.5854V62.4375Z" fill="#B2B2B2"/>
    <path d="M41.8354 79.3125V62.4375H52.5854V79.3125" stroke="#191919" stroke-linecap="round" stroke-linejoin="round"/>
    <path d="M40.0439 32.0625L32.8772 62.4375" stroke="#191919" stroke-linecap="round" stroke-linejoin="round"/>
    <path d="M54.3772 32.0625L61.5439 62.4375" stroke="#191919" stroke-linecap="round" stroke-linejoin="round"/>
    <path d="M21.5286 42.1875H72.8885" stroke="#191919" stroke-linecap="round" stroke-linejoin="round"/>
    <path d="M15.5552 52.3125H78.8619" stroke="#191919" stroke-linecap="round" stroke-linejoin="round"/>
</svg>
